<?xml version="1.0" encoding="utf-8"?>
<svg xmlns="http://www.w3.org/2000/svg" viewBox="0 0 500 500">
  <g transform="matrix(0.856619, 0, 0, 0.856619, -302.078522, -46.321198)" style="">
    <path d="M 617.899 61.892 C 715.445 56.097 797.202 88.72 863.168 159.761 C 928.214 239.503 947.709 329.415 921.651 429.498 C 885.742 535.227 813.534 601.269 705.026 627.623 L 703.832 627.026 C 746.39 583.556 762.503 531.638 752.17 471.271 C 744.45 443.969 737.287 416.512 730.686 388.918 C 724.887 335.855 748.161 304.625 800.508 295.226 C 817.233 292.66 833.147 295.048 848.249 302.387 C 852.394 305.337 856.198 308.739 859.588 312.532 C 870.391 271.74 857.462 240.908 820.798 220.034 C 811.575 214.445 801.494 210.412 790.959 208.099 C 779.719 190.503 764.203 178.17 744.412 171.099 C 700.155 156.029 655.596 154.835 610.738 167.519 C 582.553 178.987 560.074 197.486 543.303 223.018 C 533.71 237.417 525.326 252.588 518.24 268.372 C 481.982 351.628 447.363 435.589 414.403 520.206 C 366.294 455.175 347.994 382.37 359.5 301.791 C 381.794 189.989 446.444 114.598 553.448 75.618 C 574.687 69.105 596.171 64.529 617.899 61.892" style="fill: white;"/>
    <path d="M 684.219 213.859 C 701.64 212.942 717.95 216.722 733.154 225.197 C 734.984 226.29 736.603 227.706 737.928 229.374 C 726.426 258.581 706.137 266.737 677.058 253.842 C 666.084 248.042 656.933 240.086 649.607 229.971 C 659.724 221.33 671.262 215.959 684.219 213.859" style="fill: white;"/>
  </g>
</svg>
