<?xml version="1.0" encoding="utf-8"?>
<svg xmlns="http://www.w3.org/2000/svg" viewBox="0 0 500 500">
  <defs>
    <radialGradient gradientUnits="userSpaceOnUse" cx="644.486" cy="342.207" r="285.359" id="gradient-0">
      <stop offset="0" style="stop-color: rgb(50.98% 76.863% 97.647%)"/>
      <stop offset="1" style="stop-color: rgb(14.896% 45.3% 64.204%)"/>
    </radialGradient>
  </defs>
  <g transform="matrix(0.856619, 0, 0, 0.856619, -300.585663, -42.9259)" style="">
    <rect style="stroke: rgb(0, 0, 0); fill: url(&quot;#gradient-0&quot;); fill-rule: nonzero;" x="359.126" y="65.068" width="570.719" height="554.278" rx="90.188" ry="90.188"/>
    <path d="M 622.198 105.482 C 703.928 100.627 772.428 127.96 827.698 187.482 C 882.197 254.294 898.531 329.627 876.698 413.482 C 846.612 502.068 786.112 557.401 695.198 579.482 L 694.198 578.982 C 729.855 542.561 743.355 499.061 734.698 448.482 C 728.229 425.607 722.228 402.602 716.698 379.482 C 711.839 335.023 731.339 308.857 775.198 300.982 C 789.211 298.832 802.545 300.832 815.198 306.982 C 818.671 309.453 821.858 312.304 824.698 315.482 C 833.75 281.304 822.917 255.471 792.198 237.982 C 784.47 233.299 776.024 229.92 767.198 227.982 C 757.78 213.239 744.78 202.906 728.198 196.982 C 691.117 184.355 653.783 183.355 616.198 193.982 C 592.583 203.59 573.75 219.09 559.698 240.482 C 551.66 252.547 544.636 265.257 538.698 278.482 C 508.319 348.239 479.314 418.586 451.698 489.482 C 411.39 434.996 396.057 373.996 405.698 306.482 C 424.377 212.809 478.544 149.642 568.198 116.982 C 585.993 111.525 603.993 107.691 622.198 105.482" style="fill: rgb(255, 255, 255);"/>
    <path d="M 679.721 231.83 C 694.316 231.062 707.982 234.229 720.721 241.33 C 722.254 242.246 723.61 243.432 724.721 244.83 C 715.084 269.301 698.084 276.134 673.721 265.33 C 664.526 260.471 656.859 253.805 650.721 245.33 C 659.197 238.09 668.864 233.59 679.721 231.83" style="fill: rgb(255, 255, 255);"/>
  </g>
</svg>